<svg xmlns="http://www.w3.org/2000/svg" width="160" height="65" fill="none" style="color:#000" viewBox="0 0 140 31"><path fill="#687BEA" d="M15.515 6.83a8.994 8.994 0 0 1 6.343 2.27 8.45 8.45 0 0 1 2.824 5.954l6.434-.249a14.496 14.496 0 0 0-2.892-8.126 15.192 15.192 0 0 0-7.064-5.188 15.732 15.732 0 0 0-8.856-.502c-2.94.686-5.608 2.201-7.663 4.354a14.682 14.682 0 0 0-3.887 7.742 14.396 14.396 0 0 0 1.2 8.52 14.926 14.926 0 0 0 5.88 6.428 15.63 15.63 0 0 0 8.582 2.167l-.241-6.237a8.982 8.982 0 0 1-6.261-2.317 8.441 8.441 0 0 1-2.773-5.914 8.44 8.44 0 0 1 2.309-6.11 8.982 8.982 0 0 1 6.063-2.793h.002Z"/><path fill="#687BEA" d="M22.284 15.397h-6.44c.006 3.928 1.618 7.694 4.483 10.472 2.865 2.777 6.75 4.34 10.801 4.344v-6.242a8.996 8.996 0 0 1-6.251-2.514 8.451 8.451 0 0 1-2.593-6.06Z"/><path fill="#000" d="M46.334 24.631h2.445V17.74h8.059v-2.254h-8.06v-5.057h10.305V8.18H46.334v16.45ZM114.803 20.142l-9.432-11.97h-1.887v16.459h2.444V12.725l9.364 11.906h1.96V8.173h-2.444l-.005 11.97ZM89.168 8.173 82.382 24.63h2.603l5.514-13.399 5.516 13.399h2.602L91.832 8.173h-2.664ZM76.73 16.254a4.993 4.993 0 0 0 .373-5.323 5.193 5.193 0 0 0-1.955-2.021 5.413 5.413 0 0 0-2.755-.74H64.67v16.46h2.445V10.4h5.278c.384-.007.765.066 1.119.212.353.146.67.363.932.636.274.273.49.595.634.95.145.353.216.731.208 1.112.007.383-.064.763-.209 1.119s-.36.681-.635.956a2.714 2.714 0 0 1-.925.643 2.786 2.786 0 0 1-1.116.218h-1.886l5.056 8.381h2.72l-3.983-6.56a5.263 5.263 0 0 0 2.422-1.813ZM136.831 22.842c.277-.22.552-.45.808-.692a8.41 8.41 0 0 0 2.331-5.111 8.326 8.326 0 0 0-1.434-5.414 8.77 8.77 0 0 0-4.584-3.39 9.058 9.058 0 0 0-5.764.09 8.747 8.747 0 0 0-4.47 3.53 8.319 8.319 0 0 0-1.255 5.454 8.422 8.422 0 0 0 2.498 5.037 8.909 8.909 0 0 0 5.179 2.456c.767.13 1.554.09 2.303-.12a7.613 7.613 0 0 1-.564-2.236c-.479.02-.959.01-1.436-.031a6.4 6.4 0 0 1-3.906-1.944 6.038 6.038 0 0 1-1.661-3.94 6.012 6.012 0 0 1 1.384-4.04 6.363 6.363 0 0 1 3.762-2.194 6.498 6.498 0 0 1 4.329.706 6.184 6.184 0 0 1 2.813 3.268 5.958 5.958 0 0 1-.057 4.256 6.203 6.203 0 0 1-2.901 3.196h-.024v.014a5.52 5.52 0 0 0 1.699 3.948 5.877 5.877 0 0 0 4.077 1.636v-2.358a3.42 3.42 0 0 1-1.906-.586 3.258 3.258 0 0 1-1.221-1.535Z"/></svg>